<svg width="212" height="126" viewBox="0 0 212 126" fill="none" xmlns="http://www.w3.org/2000/svg">
<ellipse cx="106" cy="93.5" rx="106" ry="32.5" fill="#92B953" fill-opacity="0.43"/>
<rect x="29.5" y="1.5" width="137" height="99" rx="13.5" stroke="#3F2811" stroke-width="3"/>
<path d="M30.5 91.5C37.8333 70.1667 76 26.8001 168 30.0001" stroke="#3F2811" stroke-width="3"/>
<path d="M115.5 34C100.5 49.1667 70.7002 83.6 71.5002 100" stroke="#3F2811" stroke-width="3"/>
<path d="M74.0001 48C61.6668 62 36.7003 94.1 45.5003 100.5" stroke="#3F2811" stroke-width="3"/>
<path d="M94.5 39C79.1667 53.3333 55 84.5 57 100.5" stroke="#3F2811" stroke-width="3"/>
<path d="M135.5 30.5C118.5 45.8333 81.8999 82 85.4999 100" stroke="#3F2811" stroke-width="3"/>
<path d="M155 30.5C137.5 44.3333 99.7 77.5 102.5 99.5" stroke="#3F2811" stroke-width="3"/>
<path d="M166 40.5C149.5 52.6667 119.5 79.9 125.5 99.5" stroke="#3F2811" stroke-width="3"/>
<path d="M143.5 100.5C145.333 90.3333 147 77.5 166.5 61" stroke="#3F2811" stroke-width="3"/>
<circle cx="49" cy="21" r="7.5" stroke="#3F2811" stroke-width="3"/>
</svg>
