<svg width="212" height="126" viewBox="0 0 212 126" fill="none" xmlns="http://www.w3.org/2000/svg">
<ellipse cx="106" cy="93.5" rx="106" ry="32.5" fill="#92B953" fill-opacity="0.43"/>
<mask id="path-2-inside-1" fill="white">
<path fill-rule="evenodd" clip-rule="evenodd" d="M185 49C167.011 26.5137 134.03 9.39726 103.288 0C76.3981 9.06164 42.0918 26.1026 27 49H58.7584C58.2601 51.7579 58 54.5986 58 57.5C58 83.7335 79.2665 105 105.5 105C131.734 105 153 83.7335 153 57.5C153 54.5986 152.74 51.7579 152.242 49H185ZM61.8109 49H149.189C149.721 51.7514 150 54.5931 150 57.5C150 82.0767 130.077 102 105.5 102C80.9233 102 61 82.0767 61 57.5C61 54.5931 61.2787 51.7514 61.8109 49Z"/>
</mask>
<path d="M103.288 0L104.165 -2.86896L103.243 -3.1507L102.33 -2.84291L103.288 0ZM185 49V52H191.242L187.343 47.1259L185 49ZM27 49L24.4951 47.349L21.4297 52H27V49ZM58.7584 49L61.7106 49.5333L62.3489 46H58.7584V49ZM152.242 49V46H148.651L149.289 49.5333L152.242 49ZM149.189 49L152.135 48.4303L151.664 46H149.189V49ZM61.8109 49V46H59.3355L58.8655 48.4303L61.8109 49ZM102.411 2.86896C132.905 12.1901 165.214 29.0707 182.657 50.8741L187.343 47.1259C168.807 23.9567 135.156 6.6044 104.165 -2.86896L102.411 2.86896ZM29.5049 50.651C36.6978 39.7378 48.6163 30.0333 62.2578 21.8873C75.8604 13.7645 90.9561 7.32148 104.246 2.84291L102.33 -2.84291C88.7299 1.74016 73.2275 8.3484 59.1816 16.7359C45.1746 25.1001 32.394 35.3647 24.4951 47.349L29.5049 50.651ZM58.7584 46H27V52H58.7584V46ZM55.8062 48.4667C55.2763 51.3997 55 54.4189 55 57.5H61C61 54.7782 61.244 52.116 61.7106 49.5333L55.8062 48.4667ZM55 57.5C55 85.3904 77.6096 108 105.5 108V102C80.9233 102 61 82.0767 61 57.5H55ZM105.5 108C133.39 108 156 85.3904 156 57.5H150C150 82.0767 130.077 102 105.5 102V108ZM156 57.5C156 54.4189 155.724 51.3997 155.194 48.4667L149.289 49.5333C149.756 52.116 150 54.7782 150 57.5H156ZM185 46H152.242V52H185V46ZM149.189 46H61.8109V52H149.189V46ZM153 57.5C153 54.401 152.703 51.3685 152.135 48.4303L146.244 49.5697C146.74 52.1343 147 54.7853 147 57.5H153ZM105.5 105C131.734 105 153 83.7335 153 57.5H147C147 80.4198 128.42 99 105.5 99V105ZM58 57.5C58 83.7335 79.2665 105 105.5 105V99C82.5802 99 64 80.4198 64 57.5H58ZM58.8655 48.4303C58.2972 51.3685 58 54.401 58 57.5H64C64 54.7853 64.2603 52.1343 64.7563 49.5697L58.8655 48.4303Z" fill="#3F2811" mask="url(#path-2-inside-1)"/>
</svg>
