<svg width="212" height="118" viewBox="0 0 212 118" fill="none" xmlns="http://www.w3.org/2000/svg">
<ellipse cx="106" cy="85.5" rx="106" ry="32.5" fill="#92B953" fill-opacity="0.43"/>
<path d="M96.5 55.9974C104.5 51.9975 107.096 75.1997 110.296 87.9997C112.296 75.9997 106.5 36.2002 118.5 37.0002" stroke="#3F2811" stroke-width="3"/>
<path d="M140.242 32.2418C134.995 37.4884 128.408 39.6079 123.501 38.5385C121.699 38.1458 120.125 37.328 118.881 36.0836C116.598 33.8003 115.719 30.3501 116.358 26.441C116.997 22.5349 119.147 18.2983 122.723 14.7227C129.138 8.30756 137.403 6.64473 142.324 9.52388C142.963 9.89752 143.552 10.3491 144.084 10.8809C146.367 13.1642 147.246 16.6145 146.607 20.5235C145.967 24.4296 143.818 28.6662 140.242 32.2418Z" stroke="#3F2811" stroke-width="3"/>
<path d="M91.4214 36.1083C97.2583 40.6892 100.151 46.9751 99.6765 51.9748C99.5023 53.8108 98.8788 55.4715 97.7923 56.8559C95.7987 59.396 92.4784 60.6817 88.521 60.5146C84.5664 60.3476 80.103 58.7202 76.1251 55.5983C68.9883 49.9971 66.3482 41.9905 68.6176 36.7603C68.9122 36.0816 69.2899 35.4424 69.7542 34.8507C71.7478 32.3105 75.0681 31.0249 79.0256 31.192C82.9801 31.359 87.4436 32.9864 91.4214 36.1083Z" stroke="#3F2811" stroke-width="3"/>
</svg>
