<svg width="417" height="422" viewBox="0 0 417 422" fill="none" xmlns="http://www.w3.org/2000/svg">
<rect x="2" y="2" width="413" height="418" rx="42" fill="white" stroke="#3F2811" stroke-width="4"/>
<path d="M107.468 344C107.241 344 107.049 343.921 106.89 343.762C106.731 343.603 106.652 343.411 106.652 343.184V321.05C106.652 320.801 106.72 320.597 106.856 320.438C107.015 320.279 107.219 320.2 107.468 320.2H110.46C110.709 320.2 110.913 320.279 111.072 320.438C111.231 320.597 111.31 320.801 111.31 321.05V329.006L118.994 320.812C119.289 320.404 119.731 320.2 120.32 320.2H123.686C123.867 320.2 124.026 320.268 124.162 320.404C124.321 320.54 124.4 320.71 124.4 320.914C124.4 321.073 124.355 321.209 124.264 321.322L114.914 331.59L124.91 342.844C125.023 342.98 125.08 343.127 125.08 343.286C125.08 343.49 125.001 343.66 124.842 343.796C124.706 343.932 124.547 344 124.366 344H120.864C120.297 344 119.855 343.796 119.538 343.388L111.31 334.378V343.184C111.31 343.433 111.231 343.637 111.072 343.796C110.913 343.932 110.709 344 110.46 344H107.468ZM135.57 344.34C132.918 344.34 130.867 343.66 129.416 342.3C127.966 340.917 127.184 339.036 127.07 336.656L127.036 335.16L127.07 333.664C127.184 331.307 127.977 329.437 129.45 328.054C130.924 326.671 132.964 325.98 135.57 325.98C138.177 325.98 140.217 326.671 141.69 328.054C143.164 329.437 143.957 331.307 144.07 333.664C144.093 333.936 144.104 334.435 144.104 335.16C144.104 335.885 144.093 336.384 144.07 336.656C143.957 339.036 143.175 340.917 141.724 342.3C140.274 343.66 138.222 344.34 135.57 344.34ZM135.57 340.974C136.772 340.974 137.701 340.6 138.358 339.852C139.016 339.081 139.378 337.959 139.446 336.486C139.469 336.259 139.48 335.817 139.48 335.16C139.48 334.503 139.469 334.061 139.446 333.834C139.378 332.361 139.016 331.25 138.358 330.502C137.701 329.731 136.772 329.346 135.57 329.346C134.369 329.346 133.44 329.731 132.782 330.502C132.125 331.25 131.762 332.361 131.694 333.834L131.66 335.16L131.694 336.486C131.762 337.959 132.125 339.081 132.782 339.852C133.44 340.6 134.369 340.974 135.57 340.974ZM149.741 350.46C149.515 350.46 149.322 350.381 149.163 350.222C149.005 350.086 148.925 349.893 148.925 349.644V327.136C148.925 326.887 149.005 326.694 149.163 326.558C149.322 326.399 149.515 326.32 149.741 326.32H152.427C152.677 326.32 152.869 326.399 153.005 326.558C153.164 326.694 153.243 326.887 153.243 327.136V328.496C154.513 326.819 156.326 325.98 158.683 325.98C160.973 325.98 162.729 326.705 163.953 328.156C165.177 329.584 165.835 331.522 165.925 333.97C165.948 334.242 165.959 334.639 165.959 335.16C165.959 335.704 165.948 336.112 165.925 336.384C165.835 338.764 165.177 340.691 163.953 342.164C162.729 343.615 160.973 344.34 158.683 344.34C156.394 344.34 154.649 343.535 153.447 341.926V349.644C153.447 349.893 153.368 350.086 153.209 350.222C153.073 350.381 152.881 350.46 152.631 350.46H149.741ZM157.425 340.702C159.873 340.702 161.177 339.195 161.335 336.18C161.358 335.953 161.369 335.613 161.369 335.16C161.369 334.707 161.358 334.367 161.335 334.14C161.177 331.125 159.873 329.618 157.425 329.618C156.111 329.618 155.136 330.037 154.501 330.876C153.867 331.715 153.515 332.746 153.447 333.97L153.413 335.262L153.447 336.588C153.493 337.721 153.844 338.696 154.501 339.512C155.181 340.305 156.156 340.702 157.425 340.702ZM178.412 344.34C175.896 344.34 173.89 343.615 172.394 342.164C170.921 340.691 170.139 338.628 170.048 335.976L170.014 335.126L170.048 334.276C170.162 331.692 170.955 329.663 172.428 328.19C173.924 326.717 175.919 325.98 178.412 325.98C181.087 325.98 183.15 326.796 184.6 328.428C186.074 330.06 186.81 332.236 186.81 334.956V335.67C186.81 335.897 186.731 336.089 186.572 336.248C186.414 336.407 186.21 336.486 185.96 336.486H174.672V336.758C174.718 338.005 175.058 339.059 175.692 339.92C176.35 340.759 177.245 341.178 178.378 341.178C179.716 341.178 180.792 340.657 181.608 339.614C181.812 339.365 181.971 339.206 182.084 339.138C182.22 339.07 182.413 339.036 182.662 339.036H185.586C185.79 339.036 185.96 339.104 186.096 339.24C186.255 339.353 186.334 339.501 186.334 339.682C186.334 340.226 186.006 340.872 185.348 341.62C184.714 342.345 183.796 342.98 182.594 343.524C181.393 344.068 179.999 344.34 178.412 344.34ZM182.186 333.63V333.528C182.186 332.191 181.846 331.114 181.166 330.298C180.509 329.482 179.591 329.074 178.412 329.074C177.234 329.074 176.316 329.482 175.658 330.298C175.001 331.114 174.672 332.191 174.672 333.528V333.63H182.186ZM199.055 344.34C196.539 344.34 194.533 343.615 193.037 342.164C191.564 340.691 190.782 338.628 190.691 335.976L190.657 335.126L190.691 334.276C190.805 331.692 191.598 329.663 193.071 328.19C194.567 326.717 196.562 325.98 199.055 325.98C201.73 325.98 203.793 326.796 205.243 328.428C206.717 330.06 207.453 332.236 207.453 334.956V335.67C207.453 335.897 207.374 336.089 207.215 336.248C207.057 336.407 206.853 336.486 206.603 336.486H195.315V336.758C195.361 338.005 195.701 339.059 196.335 339.92C196.993 340.759 197.888 341.178 199.021 341.178C200.359 341.178 201.435 340.657 202.251 339.614C202.455 339.365 202.614 339.206 202.727 339.138C202.863 339.07 203.056 339.036 203.305 339.036H206.229C206.433 339.036 206.603 339.104 206.739 339.24C206.898 339.353 206.977 339.501 206.977 339.682C206.977 340.226 206.649 340.872 205.991 341.62C205.357 342.345 204.439 342.98 203.237 343.524C202.036 344.068 200.642 344.34 199.055 344.34ZM202.829 333.63V333.528C202.829 332.191 202.489 331.114 201.809 330.298C201.152 329.482 200.234 329.074 199.055 329.074C197.877 329.074 196.959 329.482 196.301 330.298C195.644 331.114 195.315 332.191 195.315 333.528V333.63H202.829Z" fill="#252525"/>
<path d="M213.306 344C213.08 344 212.887 343.921 212.728 343.762C212.57 343.603 212.49 343.411 212.49 343.184V321.016C212.49 320.767 212.57 320.574 212.728 320.438C212.887 320.279 213.08 320.2 213.306 320.2H216.468C216.718 320.2 216.91 320.279 217.046 320.438C217.205 320.574 217.284 320.767 217.284 321.016V339.954H228.062C228.312 339.954 228.516 340.033 228.674 340.192C228.833 340.351 228.912 340.555 228.912 340.804V343.184C228.912 343.433 228.833 343.637 228.674 343.796C228.516 343.932 228.312 344 228.062 344H213.306ZM240.175 344.34C237.659 344.34 235.653 343.615 234.157 342.164C232.684 340.691 231.902 338.628 231.811 335.976L231.777 335.126L231.811 334.276C231.925 331.692 232.718 329.663 234.191 328.19C235.687 326.717 237.682 325.98 240.175 325.98C242.85 325.98 244.913 326.796 246.363 328.428C247.837 330.06 248.573 332.236 248.573 334.956V335.67C248.573 335.897 248.494 336.089 248.335 336.248C248.177 336.407 247.973 336.486 247.723 336.486H236.435V336.758C236.481 338.005 236.821 339.059 237.455 339.92C238.113 340.759 239.008 341.178 240.141 341.178C241.479 341.178 242.555 340.657 243.371 339.614C243.575 339.365 243.734 339.206 243.847 339.138C243.983 339.07 244.176 339.036 244.425 339.036H247.349C247.553 339.036 247.723 339.104 247.859 339.24C248.018 339.353 248.097 339.501 248.097 339.682C248.097 340.226 247.769 340.872 247.111 341.62C246.477 342.345 245.559 342.98 244.357 343.524C243.156 344.068 241.762 344.34 240.175 344.34ZM243.949 333.63V333.528C243.949 332.191 243.609 331.114 242.929 330.298C242.272 329.482 241.354 329.074 240.175 329.074C238.997 329.074 238.079 329.482 237.421 330.298C236.764 331.114 236.435 332.191 236.435 333.528V333.63H243.949ZM254.052 344C253.826 344 253.633 343.921 253.474 343.762C253.316 343.603 253.236 343.411 253.236 343.184V320.676C253.236 320.427 253.316 320.234 253.474 320.098C253.633 319.939 253.826 319.86 254.052 319.86H256.874C257.124 319.86 257.316 319.939 257.452 320.098C257.611 320.234 257.69 320.427 257.69 320.676V343.184C257.69 343.411 257.611 343.603 257.452 343.762C257.316 343.921 257.124 344 256.874 344H254.052ZM268.354 344.34C267.198 344.34 266.133 344.113 265.158 343.66C264.206 343.184 263.447 342.549 262.88 341.756C262.336 340.963 262.064 340.09 262.064 339.138C262.064 337.597 262.688 336.35 263.934 335.398C265.181 334.446 266.892 333.8 269.068 333.46L273.726 332.78V332.066C273.726 331.069 273.477 330.321 272.978 329.822C272.48 329.323 271.675 329.074 270.564 329.074C269.816 329.074 269.204 329.221 268.728 329.516C268.275 329.788 267.912 330.06 267.64 330.332C267.368 330.627 267.187 330.819 267.096 330.91C267.006 331.182 266.836 331.318 266.586 331.318H263.968C263.764 331.318 263.583 331.25 263.424 331.114C263.288 330.978 263.22 330.797 263.22 330.57C263.243 330.003 263.515 329.357 264.036 328.632C264.58 327.907 265.408 327.283 266.518 326.762C267.629 326.241 268.989 325.98 270.598 325.98C273.273 325.98 275.222 326.581 276.446 327.782C277.67 328.983 278.282 330.559 278.282 332.508V343.184C278.282 343.411 278.203 343.603 278.044 343.762C277.908 343.921 277.716 344 277.466 344H274.712C274.486 344 274.293 343.921 274.134 343.762C273.976 343.603 273.896 343.411 273.896 343.184V341.858C273.398 342.583 272.684 343.184 271.754 343.66C270.848 344.113 269.714 344.34 268.354 344.34ZM269.51 341.11C270.757 341.11 271.777 340.702 272.57 339.886C273.364 339.07 273.76 337.88 273.76 336.316V335.602L270.36 336.146C269.046 336.35 268.048 336.679 267.368 337.132C266.711 337.585 266.382 338.141 266.382 338.798C266.382 339.523 266.688 340.09 267.3 340.498C267.912 340.906 268.649 341.11 269.51 341.11ZM284.48 344C284.254 344 284.061 343.921 283.902 343.762C283.744 343.603 283.664 343.411 283.664 343.184V327.136C283.664 326.909 283.744 326.717 283.902 326.558C284.061 326.399 284.254 326.32 284.48 326.32H287.268C287.495 326.32 287.688 326.399 287.846 326.558C288.005 326.717 288.084 326.909 288.084 327.136V328.53C289.422 326.83 291.314 325.98 293.762 325.98C295.848 325.98 297.502 326.671 298.726 328.054C299.95 329.414 300.562 331.273 300.562 333.63V343.184C300.562 343.411 300.483 343.603 300.324 343.762C300.188 343.921 299.996 344 299.746 344H296.754C296.528 344 296.335 343.921 296.176 343.762C296.018 343.603 295.938 343.411 295.938 343.184V333.834C295.938 332.497 295.61 331.465 294.952 330.74C294.318 329.992 293.388 329.618 292.164 329.618C290.963 329.618 290.011 329.992 289.308 330.74C288.628 331.488 288.288 332.519 288.288 333.834V343.184C288.288 343.411 288.209 343.603 288.05 343.762C287.914 343.921 287.722 344 287.472 344H284.48ZM313.891 351.48C311.874 351.48 310.242 351.14 308.995 350.46C307.748 349.803 306.864 349.043 306.343 348.182C305.822 347.321 305.561 346.584 305.561 345.972C305.561 345.768 305.64 345.587 305.799 345.428C305.98 345.269 306.173 345.19 306.377 345.19H309.335C309.539 345.19 309.709 345.235 309.845 345.326C310.004 345.439 310.128 345.632 310.219 345.904C310.446 346.516 310.808 347.026 311.307 347.434C311.828 347.865 312.633 348.08 313.721 348.08C315.081 348.08 316.078 347.774 316.713 347.162C317.37 346.55 317.699 345.496 317.699 344V341.688C316.452 343.161 314.707 343.898 312.463 343.898C310.106 343.898 308.326 343.173 307.125 341.722C305.946 340.271 305.312 338.322 305.221 335.874L305.187 334.956L305.221 334.038C305.312 331.635 305.958 329.697 307.159 328.224C308.36 326.728 310.128 325.98 312.463 325.98C313.664 325.98 314.718 326.207 315.625 326.66C316.532 327.113 317.291 327.737 317.903 328.53V327.17C317.903 326.921 317.982 326.717 318.141 326.558C318.3 326.399 318.492 326.32 318.719 326.32H321.473C321.7 326.32 321.892 326.411 322.051 326.592C322.21 326.751 322.289 326.943 322.289 327.17L322.323 343.558C322.323 346.074 321.62 348.023 320.215 349.406C318.81 350.789 316.702 351.48 313.891 351.48ZM313.721 340.294C315.013 340.294 315.976 339.886 316.611 339.07C317.268 338.254 317.631 337.257 317.699 336.078C317.722 335.897 317.733 335.523 317.733 334.956C317.733 334.412 317.722 334.049 317.699 333.868C317.631 332.667 317.268 331.658 316.611 330.842C315.976 330.026 315.013 329.618 313.721 329.618C311.273 329.618 309.981 331.125 309.845 334.14L309.811 334.956C309.811 336.565 310.094 337.857 310.661 338.832C311.25 339.807 312.27 340.294 313.721 340.294Z" fill="#7D9E46"/>
<ellipse cx="229.287" cy="105.213" rx="10.674" ry="15.418" transform="rotate(44.4308 229.287 105.213)" fill="#6CCC54"/>
<path d="M241.079 95.2802C237.919 96.2537 231.258 99.8998 229.887 106.696C228.516 113.493 221.498 115.772 218.161 116.063" stroke="white" stroke-width="0.75"/>
<ellipse cx="200.786" cy="106.072" rx="8.09872" ry="11.6982" transform="rotate(-69.6197 200.786 106.072)" fill="#6CCC54"/>
<path d="M190.258 100.973C191.909 102.861 196.495 106.349 201.629 105.197C206.762 104.046 210.511 108.203 211.744 110.426" stroke="white" stroke-width="0.75"/>
<ellipse cx="214.292" cy="82.9429" rx="8.09872" ry="11.6982" transform="rotate(10.1563 214.292 82.9429)" fill="#6CCC54"/>
<path d="M217.441 71.6771C215.876 73.6373 213.258 78.7696 215.302 83.6169C217.346 88.4643 213.921 92.8918 211.952 94.4996" stroke="white" stroke-width="0.75"/>
<g opacity="0.4">
<path d="M230.253 181.782C231.661 173.618 239.42 168.141 247.584 169.549L376.679 191.81C384.843 193.218 390.319 200.977 388.912 209.141L388.822 209.663C387.414 217.827 379.655 223.304 371.491 221.896L318.925 212.831L315.091 235.068C314.128 240.651 308.639 244.251 303.135 242.909C298.425 241.761 295.266 237.337 295.71 232.51L297.854 209.198L242.396 199.634C234.232 198.227 228.755 190.467 230.163 182.304L230.253 181.782Z" fill="#3F2811"/>
<path d="M296.46 219.575L303.356 220.764C305.221 222.058 307.665 224.84 302.519 225.619C297.372 226.398 298.346 225.594 296.434 224.57C296.295 225.379 295.85 232.801 295.85 232.801C295.85 232.801 295.873 235.219 295.966 236.081C296.012 236.114 296.058 236.146 296.103 236.178C296.046 236.51 296.001 236.407 295.966 236.081C292.239 233.435 286.903 227.145 296.46 219.575Z" fill="#EFDBC8"/>
<path d="M308.958 222.571L317.204 223.152C322.448 231.46 317.428 236.371 314.263 237.788C312.119 238.12 307.36 238.617 305.471 237.955C303.582 237.293 305.013 235.773 305.964 235.095L309.107 234.924C308.054 234.851 307.121 234.678 306.51 234.348C304.678 233.359 306.122 231.757 307.074 231.08L315.725 231.731C313.54 231.494 308.779 230.87 307.215 230.263C305.65 229.657 306.938 227.832 307.778 226.995L316.429 227.646C314.244 227.409 309.565 226.798 308.324 226.248C307.084 225.698 308.23 223.568 308.958 222.571Z" fill="#EFDBC8"/>
</g>
<g opacity="0.4">
<path d="M39.5291 231.289C36.4754 223.588 40.2429 214.87 47.9438 211.816L169.72 163.529C177.421 160.475 186.139 164.243 189.192 171.944L189.388 172.436C192.441 180.137 188.674 188.855 180.973 191.909L131.388 211.571L139.705 232.546C141.793 237.813 138.985 243.746 133.588 245.47C128.971 246.945 123.969 244.816 121.832 240.465L111.511 219.452L59.1971 240.196C51.4961 243.25 42.7778 239.482 39.7242 231.781L39.5291 231.289Z" fill="#3F2811"/>
<path d="M115.73 229.035L122.235 226.456C124.501 226.588 128.037 227.688 124.051 231.035C120.065 234.383 120.477 233.189 118.311 233.311C118.614 234.074 122.103 240.641 122.103 240.641C122.103 240.641 123.383 242.692 123.912 243.379C123.968 243.383 124.024 243.387 124.079 243.39C124.204 243.704 124.111 243.639 123.912 243.379C119.351 243.064 111.519 240.477 115.73 229.035Z" fill="#EFDBC8"/>
<path d="M127.958 225.078L135.298 221.276C144.104 225.633 142.379 232.441 140.416 235.3C138.76 236.7 134.957 239.605 133 240.025C131.043 240.444 131.471 238.401 131.93 237.327L134.523 235.543C133.587 236.029 132.7 236.368 132.007 236.405C129.928 236.516 130.326 234.396 130.785 233.322L138.507 229.368C136.519 230.305 132.13 232.253 130.479 232.551C128.828 232.849 128.976 230.62 129.257 229.469L136.979 225.515C134.991 226.452 130.679 228.37 129.333 228.546C127.988 228.723 127.856 226.308 127.958 225.078Z" fill="#EFDBC8"/>
</g>
<path d="M73 161C73 152.716 79.7157 146 88 146H329C337.284 146 344 152.716 344 161V182.388C344 190.672 337.284 197.388 329 197.388H228.966V236.939C228.966 245.626 221.609 252.497 212.942 251.904L210.116 251.71C202.7 251.203 196.774 245.341 196.186 237.93L192.974 197.388H88C79.7157 197.388 73 190.672 73 182.388V161Z" fill="#927B66"/>
<path d="M193.631 215H205.409C208.874 216.612 213.723 220.528 205.409 223.293C197.095 226.057 198.481 224.444 195.017 223.293C195.017 224.675 196.402 237.113 196.402 237.113C196.402 237.113 197.132 241.118 197.533 242.521C197.618 242.562 197.704 242.602 197.788 242.642C197.788 243.21 197.684 243.051 197.533 242.521C190.593 239.198 179.943 230.291 193.631 215Z" fill="#EFDBC8"/>
<path d="M215.219 216.396L229.063 215C240.138 227.281 233.216 236.863 228.371 240.119C224.91 241.282 217.157 243.469 213.835 242.91C210.512 242.352 212.45 239.422 213.835 238.026L218.999 236.843C217.232 237.023 215.634 237.002 214.527 236.631C211.205 235.514 213.143 232.444 214.527 231.048L229.063 229.653C225.371 229.886 217.296 230.211 214.527 229.653C211.758 229.095 213.373 225.699 214.527 224.071L229.063 222.675C225.371 222.908 217.434 223.234 215.219 222.675C213.004 222.117 214.296 218.256 215.219 216.396Z" fill="#EFDBC8"/>
<path d="M127.244 181C127.097 181 126.973 180.949 126.87 180.846C126.767 180.743 126.716 180.619 126.716 180.472V166.15C126.716 165.989 126.76 165.857 126.848 165.754C126.951 165.651 127.083 165.6 127.244 165.6H132.942C134.731 165.6 136.132 166.018 137.144 166.854C138.171 167.69 138.684 168.878 138.684 170.418C138.684 171.489 138.42 172.391 137.892 173.124C137.379 173.843 136.66 174.363 135.736 174.686L138.948 180.296C138.992 180.384 139.014 180.465 139.014 180.538C139.014 180.67 138.963 180.78 138.86 180.868C138.772 180.956 138.669 181 138.552 181H136.55C136.315 181 136.132 180.949 136 180.846C135.883 180.743 135.773 180.597 135.67 180.406L132.832 175.192H129.774V180.472C129.774 180.619 129.723 180.743 129.62 180.846C129.532 180.949 129.407 181 129.246 181H127.244ZM132.876 172.706C133.756 172.706 134.416 172.508 134.856 172.112C135.311 171.716 135.538 171.144 135.538 170.396C135.538 169.648 135.311 169.069 134.856 168.658C134.416 168.247 133.756 168.042 132.876 168.042H129.774V172.706H132.876ZM142.465 185.18C142.318 185.18 142.193 185.129 142.091 185.026C141.988 184.938 141.937 184.813 141.937 184.652V170.088C141.937 169.927 141.988 169.802 142.091 169.714C142.193 169.611 142.318 169.56 142.465 169.56H144.203C144.364 169.56 144.489 169.611 144.577 169.714C144.679 169.802 144.731 169.927 144.731 170.088V170.968C145.552 169.883 146.725 169.34 148.251 169.34C149.732 169.34 150.869 169.809 151.661 170.748C152.453 171.672 152.878 172.926 152.937 174.51C152.951 174.686 152.959 174.943 152.959 175.28C152.959 175.632 152.951 175.896 152.937 176.072C152.878 177.612 152.453 178.859 151.661 179.812C150.869 180.751 149.732 181.22 148.251 181.22C146.769 181.22 145.64 180.699 144.863 179.658V184.652C144.863 184.813 144.811 184.938 144.709 185.026C144.621 185.129 144.496 185.18 144.335 185.18H142.465ZM147.437 178.866C149.021 178.866 149.864 177.891 149.967 175.94C149.981 175.793 149.989 175.573 149.989 175.28C149.989 174.987 149.981 174.767 149.967 174.62C149.864 172.669 149.021 171.694 147.437 171.694C146.586 171.694 145.955 171.965 145.545 172.508C145.134 173.051 144.907 173.718 144.863 174.51L144.841 175.346L144.863 176.204C144.892 176.937 145.119 177.568 145.545 178.096C145.985 178.609 146.615 178.866 147.437 178.866ZM156.334 181C156.187 181 156.063 180.949 155.96 180.846C155.857 180.743 155.806 180.619 155.806 180.472V178.294C155.806 178.147 155.857 178.023 155.96 177.92C156.063 177.803 156.187 177.744 156.334 177.744H158.534C158.681 177.744 158.805 177.803 158.908 177.92C159.011 178.023 159.062 178.147 159.062 178.294V180.472C159.062 180.619 159.011 180.743 158.908 180.846C158.805 180.949 158.681 181 158.534 181H156.334ZM169.91 181C169.778 181 169.668 180.956 169.58 180.868C169.492 180.765 169.448 180.648 169.448 180.516C169.448 180.472 169.463 180.406 169.492 180.318L174.794 168.218H167.886C167.739 168.218 167.615 168.167 167.512 168.064C167.409 167.961 167.358 167.837 167.358 167.69V166.15C167.358 165.989 167.402 165.857 167.49 165.754C167.593 165.651 167.725 165.6 167.886 165.6H177.544C177.705 165.6 177.83 165.651 177.918 165.754C178.021 165.857 178.072 165.989 178.072 166.15V167.514C178.072 167.807 178.006 168.123 177.874 168.46L172.616 180.472C172.455 180.824 172.22 181 171.912 181H169.91ZM186.057 181.242C184.84 181.242 183.791 181.037 182.911 180.626C182.046 180.215 181.379 179.673 180.909 178.998C180.455 178.323 180.213 177.597 180.183 176.82V176.776C180.183 176.659 180.227 176.563 180.315 176.49C180.403 176.417 180.513 176.38 180.645 176.38H182.691C183.029 176.38 183.249 176.527 183.351 176.82C183.557 177.465 183.894 177.942 184.363 178.25C184.847 178.558 185.412 178.712 186.057 178.712C186.879 178.712 187.561 178.463 188.103 177.964C188.661 177.465 188.939 176.769 188.939 175.874C188.939 175.082 188.661 174.437 188.103 173.938C187.561 173.439 186.879 173.19 186.057 173.19C185.617 173.19 185.258 173.249 184.979 173.366C184.701 173.483 184.429 173.645 184.165 173.85C183.989 173.982 183.85 174.077 183.747 174.136C183.659 174.18 183.549 174.202 183.417 174.202H181.393C181.261 174.202 181.144 174.158 181.041 174.07C180.953 173.967 180.909 173.85 180.909 173.718L181.679 166.194C181.694 166.018 181.753 165.879 181.855 165.776C181.973 165.659 182.119 165.6 182.295 165.6H190.567C190.714 165.6 190.839 165.651 190.941 165.754C191.044 165.857 191.095 165.981 191.095 166.128V167.602C191.095 167.749 191.044 167.873 190.941 167.976C190.839 168.079 190.714 168.13 190.567 168.13H184.209L183.857 171.716C184.576 171.217 185.537 170.968 186.739 170.968C187.693 170.968 188.573 171.173 189.379 171.584C190.201 171.98 190.853 172.559 191.337 173.322C191.821 174.07 192.063 174.943 192.063 175.94C192.063 177.011 191.814 177.949 191.315 178.756C190.817 179.548 190.113 180.164 189.203 180.604C188.309 181.029 187.26 181.242 186.057 181.242ZM195.326 181C195.179 181 195.054 180.949 194.952 180.846C194.849 180.743 194.798 180.619 194.798 180.472V178.294C194.798 178.147 194.849 178.023 194.952 177.92C195.054 177.803 195.179 177.744 195.326 177.744H197.526C197.672 177.744 197.797 177.803 197.9 177.92C198.002 178.023 198.054 178.147 198.054 178.294V180.472C198.054 180.619 198.002 180.743 197.9 180.846C197.797 180.949 197.672 181 197.526 181H195.326ZM207.004 181.22C205.053 181.22 203.594 180.677 202.626 179.592C201.673 178.507 201.152 177.084 201.064 175.324C201.049 174.928 201.042 174.253 201.042 173.3C201.042 172.332 201.049 171.643 201.064 171.232C201.137 169.501 201.665 168.093 202.648 167.008C203.631 165.923 205.083 165.38 207.004 165.38C208.94 165.38 210.399 165.923 211.382 167.008C212.365 168.093 212.885 169.501 212.944 171.232C212.973 171.643 212.988 172.332 212.988 173.3C212.988 174.253 212.973 174.928 212.944 175.324C212.871 177.084 212.35 178.507 211.382 179.592C210.429 180.677 208.969 181.22 207.004 181.22ZM207.004 178.69C207.928 178.69 208.617 178.389 209.072 177.788C209.527 177.172 209.769 176.314 209.798 175.214C209.827 174.363 209.842 173.718 209.842 173.278C209.842 172.794 209.827 172.156 209.798 171.364C209.769 170.279 209.527 169.428 209.072 168.812C208.617 168.196 207.928 167.888 207.004 167.888C206.095 167.888 205.405 168.196 204.936 168.812C204.481 169.428 204.239 170.279 204.21 171.364C204.195 171.76 204.188 172.398 204.188 173.278C204.188 174.143 204.195 174.789 204.21 175.214C204.239 176.314 204.481 177.172 204.936 177.788C205.405 178.389 206.095 178.69 207.004 178.69ZM222.123 181.22C220.172 181.22 218.713 180.677 217.745 179.592C216.792 178.507 216.271 177.084 216.183 175.324C216.168 174.928 216.161 174.253 216.161 173.3C216.161 172.332 216.168 171.643 216.183 171.232C216.256 169.501 216.784 168.093 217.767 167.008C218.75 165.923 220.202 165.38 222.123 165.38C224.059 165.38 225.518 165.923 226.501 167.008C227.484 168.093 228.004 169.501 228.063 171.232C228.092 171.643 228.107 172.332 228.107 173.3C228.107 174.253 228.092 174.928 228.063 175.324C227.99 177.084 227.469 178.507 226.501 179.592C225.548 180.677 224.088 181.22 222.123 181.22ZM222.123 178.69C223.047 178.69 223.736 178.389 224.191 177.788C224.646 177.172 224.888 176.314 224.917 175.214C224.946 174.363 224.961 173.718 224.961 173.278C224.961 172.794 224.946 172.156 224.917 171.364C224.888 170.279 224.646 169.428 224.191 168.812C223.736 168.196 223.047 167.888 222.123 167.888C221.214 167.888 220.524 168.196 220.055 168.812C219.6 169.428 219.358 170.279 219.329 171.364C219.314 171.76 219.307 172.398 219.307 173.278C219.307 174.143 219.314 174.789 219.329 175.214C219.358 176.314 219.6 177.172 220.055 177.788C220.524 178.389 221.214 178.69 222.123 178.69ZM237.242 181.22C235.291 181.22 233.832 180.677 232.864 179.592C231.911 178.507 231.39 177.084 231.302 175.324C231.287 174.928 231.28 174.253 231.28 173.3C231.28 172.332 231.287 171.643 231.302 171.232C231.375 169.501 231.903 168.093 232.886 167.008C233.869 165.923 235.321 165.38 237.242 165.38C239.178 165.38 240.637 165.923 241.62 167.008C242.603 168.093 243.123 169.501 243.182 171.232C243.211 171.643 243.226 172.332 243.226 173.3C243.226 174.253 243.211 174.928 243.182 175.324C243.109 177.084 242.588 178.507 241.62 179.592C240.667 180.677 239.207 181.22 237.242 181.22ZM237.242 178.69C238.166 178.69 238.855 178.389 239.31 177.788C239.765 177.172 240.007 176.314 240.036 175.214C240.065 174.363 240.08 173.718 240.08 173.278C240.08 172.794 240.065 172.156 240.036 171.364C240.007 170.279 239.765 169.428 239.31 168.812C238.855 168.196 238.166 167.888 237.242 167.888C236.333 167.888 235.643 168.196 235.174 168.812C234.719 169.428 234.477 170.279 234.448 171.364C234.433 171.76 234.426 172.398 234.426 173.278C234.426 174.143 234.433 174.789 234.448 175.214C234.477 176.314 234.719 177.172 235.174 177.788C235.643 178.389 236.333 178.69 237.242 178.69ZM251.822 182.848C251.705 182.848 251.602 182.804 251.514 182.716C251.426 182.628 251.382 182.518 251.382 182.386C251.382 182.298 251.397 182.217 251.426 182.144L258.928 164.17C258.972 164.053 259.046 163.95 259.148 163.862C259.266 163.759 259.412 163.708 259.588 163.708H261.018C261.136 163.708 261.238 163.752 261.326 163.84C261.429 163.928 261.48 164.038 261.48 164.17C261.48 164.214 261.458 164.295 261.414 164.412L253.912 182.386C253.766 182.694 253.538 182.848 253.23 182.848H251.822ZM264.666 181C264.519 181 264.395 180.949 264.292 180.846C264.189 180.743 264.138 180.619 264.138 180.472V165.908C264.138 165.747 264.189 165.622 264.292 165.534C264.395 165.431 264.519 165.38 264.666 165.38H266.448C266.609 165.38 266.734 165.431 266.822 165.534C266.925 165.622 266.976 165.747 266.976 165.908V173.432L270.672 169.934C270.716 169.905 270.789 169.846 270.892 169.758C270.98 169.685 271.068 169.633 271.156 169.604C271.244 169.575 271.354 169.56 271.486 169.56H273.532C273.679 169.56 273.796 169.604 273.884 169.692C273.972 169.78 274.016 169.897 274.016 170.044C274.016 170.176 273.943 170.308 273.796 170.44L269.264 174.686L274.346 180.142C274.493 180.289 274.566 180.413 274.566 180.516C274.566 180.663 274.515 180.78 274.412 180.868C274.324 180.956 274.214 181 274.082 181H271.992C271.787 181 271.633 180.978 271.53 180.934C271.442 180.875 271.325 180.773 271.178 180.626L266.976 176.204V180.472C266.976 180.619 266.925 180.743 266.822 180.846C266.734 180.949 266.609 181 266.448 181H264.666ZM281.505 185.84C280.199 185.84 279.143 185.62 278.337 185.18C277.53 184.755 276.958 184.263 276.621 183.706C276.283 183.149 276.115 182.672 276.115 182.276C276.115 182.144 276.166 182.027 276.269 181.924C276.386 181.821 276.511 181.77 276.643 181.77H278.557C278.689 181.77 278.799 181.799 278.887 181.858C278.989 181.931 279.07 182.056 279.129 182.232C279.275 182.628 279.51 182.958 279.833 183.222C280.17 183.501 280.691 183.64 281.395 183.64C282.275 183.64 282.92 183.442 283.331 183.046C283.756 182.65 283.969 181.968 283.969 181V179.504C283.162 180.457 282.033 180.934 280.581 180.934C279.055 180.934 277.904 180.465 277.127 179.526C276.364 178.587 275.953 177.326 275.895 175.742L275.873 175.148L275.895 174.554C275.953 172.999 276.371 171.745 277.149 170.792C277.926 169.824 279.07 169.34 280.581 169.34C281.358 169.34 282.04 169.487 282.627 169.78C283.213 170.073 283.705 170.477 284.101 170.99V170.11C284.101 169.949 284.152 169.817 284.255 169.714C284.357 169.611 284.482 169.56 284.629 169.56H286.411C286.557 169.56 286.682 169.619 286.785 169.736C286.887 169.839 286.939 169.963 286.939 170.11L286.961 180.714C286.961 182.342 286.506 183.603 285.597 184.498C284.687 185.393 283.323 185.84 281.505 185.84ZM281.395 178.602C282.231 178.602 282.854 178.338 283.265 177.81C283.69 177.282 283.925 176.637 283.969 175.874C283.983 175.757 283.991 175.515 283.991 175.148C283.991 174.796 283.983 174.561 283.969 174.444C283.925 173.667 283.69 173.014 283.265 172.486C282.854 171.958 282.231 171.694 281.395 171.694C279.811 171.694 278.975 172.669 278.887 174.62L278.865 175.148C278.865 176.189 279.048 177.025 279.415 177.656C279.796 178.287 280.456 178.602 281.395 178.602Z" fill="white"/>
</svg>
