<svg width="417" height="422" viewBox="0 0 417 422" fill="none" xmlns="http://www.w3.org/2000/svg">
<rect x="2" y="2" width="413" height="418" rx="42" fill="white" stroke="#3F2811" stroke-width="4"/>
<path d="M125.468 345C125.241 345 125.049 344.921 124.89 344.762C124.731 344.603 124.652 344.411 124.652 344.184V322.05C124.652 321.801 124.72 321.597 124.856 321.438C125.015 321.279 125.219 321.2 125.468 321.2H128.46C128.709 321.2 128.913 321.279 129.072 321.438C129.231 321.597 129.31 321.801 129.31 322.05V330.006L136.994 321.812C137.289 321.404 137.731 321.2 138.32 321.2H141.686C141.867 321.2 142.026 321.268 142.162 321.404C142.321 321.54 142.4 321.71 142.4 321.914C142.4 322.073 142.355 322.209 142.264 322.322L132.914 332.59L142.91 343.844C143.023 343.98 143.08 344.127 143.08 344.286C143.08 344.49 143.001 344.66 142.842 344.796C142.706 344.932 142.547 345 142.366 345H138.864C138.297 345 137.855 344.796 137.538 344.388L129.31 335.378V344.184C129.31 344.433 129.231 344.637 129.072 344.796C128.913 344.932 128.709 345 128.46 345H125.468ZM153.57 345.34C150.918 345.34 148.867 344.66 147.416 343.3C145.966 341.917 145.184 340.036 145.07 337.656L145.036 336.16L145.07 334.664C145.184 332.307 145.977 330.437 147.45 329.054C148.924 327.671 150.964 326.98 153.57 326.98C156.177 326.98 158.217 327.671 159.69 329.054C161.164 330.437 161.957 332.307 162.07 334.664C162.093 334.936 162.104 335.435 162.104 336.16C162.104 336.885 162.093 337.384 162.07 337.656C161.957 340.036 161.175 341.917 159.724 343.3C158.274 344.66 156.222 345.34 153.57 345.34ZM153.57 341.974C154.772 341.974 155.701 341.6 156.358 340.852C157.016 340.081 157.378 338.959 157.446 337.486C157.469 337.259 157.48 336.817 157.48 336.16C157.48 335.503 157.469 335.061 157.446 334.834C157.378 333.361 157.016 332.25 156.358 331.502C155.701 330.731 154.772 330.346 153.57 330.346C152.369 330.346 151.44 330.731 150.782 331.502C150.125 332.25 149.762 333.361 149.694 334.834L149.66 336.16L149.694 337.486C149.762 338.959 150.125 340.081 150.782 340.852C151.44 341.6 152.369 341.974 153.57 341.974ZM167.741 351.46C167.515 351.46 167.322 351.381 167.163 351.222C167.005 351.086 166.925 350.893 166.925 350.644V328.136C166.925 327.887 167.005 327.694 167.163 327.558C167.322 327.399 167.515 327.32 167.741 327.32H170.427C170.677 327.32 170.869 327.399 171.005 327.558C171.164 327.694 171.243 327.887 171.243 328.136V329.496C172.513 327.819 174.326 326.98 176.683 326.98C178.973 326.98 180.729 327.705 181.953 329.156C183.177 330.584 183.835 332.522 183.925 334.97C183.948 335.242 183.959 335.639 183.959 336.16C183.959 336.704 183.948 337.112 183.925 337.384C183.835 339.764 183.177 341.691 181.953 343.164C180.729 344.615 178.973 345.34 176.683 345.34C174.394 345.34 172.649 344.535 171.447 342.926V350.644C171.447 350.893 171.368 351.086 171.209 351.222C171.073 351.381 170.881 351.46 170.631 351.46H167.741ZM175.425 341.702C177.873 341.702 179.177 340.195 179.335 337.18C179.358 336.953 179.369 336.613 179.369 336.16C179.369 335.707 179.358 335.367 179.335 335.14C179.177 332.125 177.873 330.618 175.425 330.618C174.111 330.618 173.136 331.037 172.501 331.876C171.867 332.715 171.515 333.746 171.447 334.97L171.413 336.262L171.447 337.588C171.493 338.721 171.844 339.696 172.501 340.512C173.181 341.305 174.156 341.702 175.425 341.702ZM196.412 345.34C193.896 345.34 191.89 344.615 190.394 343.164C188.921 341.691 188.139 339.628 188.048 336.976L188.014 336.126L188.048 335.276C188.162 332.692 188.955 330.663 190.428 329.19C191.924 327.717 193.919 326.98 196.412 326.98C199.087 326.98 201.15 327.796 202.6 329.428C204.074 331.06 204.81 333.236 204.81 335.956V336.67C204.81 336.897 204.731 337.089 204.572 337.248C204.414 337.407 204.21 337.486 203.96 337.486H192.672V337.758C192.718 339.005 193.058 340.059 193.692 340.92C194.35 341.759 195.245 342.178 196.378 342.178C197.716 342.178 198.792 341.657 199.608 340.614C199.812 340.365 199.971 340.206 200.084 340.138C200.22 340.07 200.413 340.036 200.662 340.036H203.586C203.79 340.036 203.96 340.104 204.096 340.24C204.255 340.353 204.334 340.501 204.334 340.682C204.334 341.226 204.006 341.872 203.348 342.62C202.714 343.345 201.796 343.98 200.594 344.524C199.393 345.068 197.999 345.34 196.412 345.34ZM200.186 334.63V334.528C200.186 333.191 199.846 332.114 199.166 331.298C198.509 330.482 197.591 330.074 196.412 330.074C195.234 330.074 194.316 330.482 193.658 331.298C193.001 332.114 192.672 333.191 192.672 334.528V334.63H200.186ZM217.055 345.34C214.539 345.34 212.533 344.615 211.037 343.164C209.564 341.691 208.782 339.628 208.691 336.976L208.657 336.126L208.691 335.276C208.805 332.692 209.598 330.663 211.071 329.19C212.567 327.717 214.562 326.98 217.055 326.98C219.73 326.98 221.793 327.796 223.243 329.428C224.717 331.06 225.453 333.236 225.453 335.956V336.67C225.453 336.897 225.374 337.089 225.215 337.248C225.057 337.407 224.853 337.486 224.603 337.486H213.315V337.758C213.361 339.005 213.701 340.059 214.335 340.92C214.993 341.759 215.888 342.178 217.021 342.178C218.359 342.178 219.435 341.657 220.251 340.614C220.455 340.365 220.614 340.206 220.727 340.138C220.863 340.07 221.056 340.036 221.305 340.036H224.229C224.433 340.036 224.603 340.104 224.739 340.24C224.898 340.353 224.977 340.501 224.977 340.682C224.977 341.226 224.649 341.872 223.991 342.62C223.357 343.345 222.439 343.98 221.237 344.524C220.036 345.068 218.642 345.34 217.055 345.34ZM220.829 334.63V334.528C220.829 333.191 220.489 332.114 219.809 331.298C219.152 330.482 218.234 330.074 217.055 330.074C215.877 330.074 214.959 330.482 214.301 331.298C213.644 332.114 213.315 333.191 213.315 334.528V334.63H220.829Z" fill="#252525"/>
<path d="M231.306 345C231.08 345 230.887 344.921 230.728 344.762C230.57 344.603 230.49 344.411 230.49 344.184V322.05C230.49 321.801 230.558 321.597 230.694 321.438C230.853 321.279 231.057 321.2 231.306 321.2H240.112C242.878 321.2 245.042 321.846 246.606 323.138C248.193 324.43 248.986 326.266 248.986 328.646C248.986 330.301 248.578 331.695 247.762 332.828C246.969 333.939 245.858 334.743 244.43 335.242L249.394 343.912C249.462 344.048 249.496 344.173 249.496 344.286C249.496 344.49 249.417 344.66 249.258 344.796C249.122 344.932 248.964 345 248.782 345H245.688C245.326 345 245.042 344.921 244.838 344.762C244.657 344.603 244.487 344.377 244.328 344.082L239.942 336.024H235.216V344.184C235.216 344.411 235.137 344.603 234.978 344.762C234.842 344.921 234.65 345 234.4 345H231.306ZM240.01 332.182C241.37 332.182 242.39 331.876 243.07 331.264C243.773 330.652 244.124 329.768 244.124 328.612C244.124 327.456 243.773 326.561 243.07 325.926C242.39 325.291 241.37 324.974 240.01 324.974H235.216V332.182H240.01ZM259.113 345.34C257.957 345.34 256.892 345.113 255.917 344.66C254.965 344.184 254.206 343.549 253.639 342.756C253.095 341.963 252.823 341.09 252.823 340.138C252.823 338.597 253.447 337.35 254.693 336.398C255.94 335.446 257.651 334.8 259.827 334.46L264.485 333.78V333.066C264.485 332.069 264.236 331.321 263.737 330.822C263.239 330.323 262.434 330.074 261.323 330.074C260.575 330.074 259.963 330.221 259.487 330.516C259.034 330.788 258.671 331.06 258.399 331.332C258.127 331.627 257.946 331.819 257.855 331.91C257.765 332.182 257.595 332.318 257.345 332.318H254.727C254.523 332.318 254.342 332.25 254.183 332.114C254.047 331.978 253.979 331.797 253.979 331.57C254.002 331.003 254.274 330.357 254.795 329.632C255.339 328.907 256.167 328.283 257.277 327.762C258.388 327.241 259.748 326.98 261.357 326.98C264.032 326.98 265.981 327.581 267.205 328.782C268.429 329.983 269.041 331.559 269.041 333.508V344.184C269.041 344.411 268.962 344.603 268.803 344.762C268.667 344.921 268.475 345 268.225 345H265.471C265.245 345 265.052 344.921 264.893 344.762C264.735 344.603 264.655 344.411 264.655 344.184V342.858C264.157 343.583 263.443 344.184 262.513 344.66C261.607 345.113 260.473 345.34 259.113 345.34ZM260.269 342.11C261.516 342.11 262.536 341.702 263.329 340.886C264.123 340.07 264.519 338.88 264.519 337.316V336.602L261.119 337.146C259.805 337.35 258.807 337.679 258.127 338.132C257.47 338.585 257.141 339.141 257.141 339.798C257.141 340.523 257.447 341.09 258.059 341.498C258.671 341.906 259.408 342.11 260.269 342.11ZM281.121 345.34C279.421 345.34 277.993 345.091 276.837 344.592C275.681 344.071 274.82 343.47 274.253 342.79C273.709 342.087 273.437 341.487 273.437 340.988C273.437 340.761 273.516 340.58 273.675 340.444C273.834 340.308 274.015 340.24 274.219 340.24H276.905C277.109 340.24 277.279 340.319 277.415 340.478C277.506 340.546 277.744 340.75 278.129 341.09C278.514 341.453 278.968 341.736 279.489 341.94C280.01 342.144 280.588 342.246 281.223 342.246C282.13 342.246 282.878 342.065 283.467 341.702C284.056 341.339 284.351 340.841 284.351 340.206C284.351 339.73 284.215 339.345 283.943 339.05C283.694 338.755 283.229 338.495 282.549 338.268C281.869 338.019 280.86 337.758 279.523 337.486C277.596 337.078 276.168 336.455 275.239 335.616C274.332 334.777 273.879 333.667 273.879 332.284C273.879 331.377 274.151 330.527 274.695 329.734C275.239 328.918 276.044 328.261 277.109 327.762C278.197 327.241 279.489 326.98 280.985 326.98C282.504 326.98 283.818 327.229 284.929 327.728C286.04 328.204 286.878 328.782 287.445 329.462C288.034 330.119 288.329 330.709 288.329 331.23C288.329 331.434 288.25 331.615 288.091 331.774C287.955 331.91 287.785 331.978 287.581 331.978H285.065C284.884 331.978 284.691 331.899 284.487 331.74C284.328 331.627 284.079 331.411 283.739 331.094C283.399 330.777 283.002 330.527 282.549 330.346C282.096 330.165 281.563 330.074 280.951 330.074C280.112 330.074 279.455 330.255 278.979 330.618C278.526 330.981 278.299 331.457 278.299 332.046C278.299 332.477 278.412 332.828 278.639 333.1C278.866 333.372 279.308 333.633 279.965 333.882C280.622 334.131 281.608 334.381 282.923 334.63C285.099 335.061 286.652 335.729 287.581 336.636C288.533 337.543 289.009 338.653 289.009 339.968C289.009 341.555 288.318 342.847 286.935 343.844C285.552 344.841 283.614 345.34 281.121 345.34ZM294.219 324.396C293.992 324.396 293.799 324.317 293.641 324.158C293.482 323.999 293.403 323.807 293.403 323.58V321.132C293.403 320.905 293.482 320.713 293.641 320.554C293.799 320.395 293.992 320.316 294.219 320.316H297.313C297.539 320.316 297.732 320.395 297.891 320.554C298.072 320.713 298.163 320.905 298.163 321.132V323.58C298.163 323.807 298.083 323.999 297.925 324.158C297.766 324.317 297.562 324.396 297.313 324.396H294.219ZM294.355 345C294.128 345 293.935 344.921 293.777 344.762C293.618 344.603 293.539 344.411 293.539 344.184V328.136C293.539 327.909 293.618 327.717 293.777 327.558C293.935 327.399 294.128 327.32 294.355 327.32H297.177C297.426 327.32 297.619 327.399 297.755 327.558C297.913 327.694 297.993 327.887 297.993 328.136V344.184C297.993 344.411 297.913 344.603 297.755 344.762C297.619 344.921 297.426 345 297.177 345H294.355Z" fill="#7D9E46"/>
<path fill-rule="evenodd" clip-rule="evenodd" d="M292.568 167.767C297.147 167.767 299.317 162.121 295.916 159.054L204.137 76.2869C202.235 74.571 199.343 74.571 197.44 76.2869L129.827 137.261C129.823 137.265 129.817 137.267 129.812 137.267H129.809C129.798 137.267 129.789 137.276 129.789 137.287C129.789 137.292 129.787 137.298 129.783 137.301L105.662 159.054C102.26 162.121 104.43 167.767 109.01 167.767H124.789C127.55 167.767 129.789 170.006 129.789 172.767V251.267C129.789 254.029 132.028 256.267 134.789 256.267H264.789C267.55 256.267 269.789 254.029 269.789 251.267V172.767C269.789 170.006 272.028 167.767 274.789 167.767H292.568Z" fill="#927B66"/>
<ellipse cx="248.5" cy="243.267" rx="44.5" ry="44" fill="#F6DFCA"/>
<path d="M246.494 190.267C274.901 198.897 305.377 214.616 322 235.267H176C189.945 214.239 221.646 198.589 246.494 190.267Z" fill="#C3AB96"/>
<path d="M270 263.267H229C233.659 272.517 237.386 276.217 247.636 278.992C255.836 281.212 265.962 269.434 270 263.267Z" fill="#FFF1E4"/>
</svg>
