<svg width="417" height="422" viewBox="0 0 417 422" fill="none" xmlns="http://www.w3.org/2000/svg">
<rect x="2" y="2" width="413" height="418" rx="42" fill="white" stroke="#3F2811" stroke-width="4"/>
<ellipse cx="212" cy="238" rx="87" ry="27" fill="#522E0C" fill-opacity="0.63"/>
<path d="M242.861 145.165C239.432 148.594 235.074 150.034 231.749 149.309C230.522 149.042 229.435 148.481 228.573 147.618C226.984 146.029 226.408 143.663 226.834 141.063C227.259 138.464 228.682 135.674 231.026 133.33C235.202 129.154 240.705 127.954 244.097 129.939C244.538 130.197 244.946 130.509 245.314 130.877C246.903 132.466 247.478 134.832 247.053 137.432C246.628 140.031 245.204 142.821 242.861 145.165Z" fill="#6CCC54" stroke="white"/>
<path d="M190.81 161.219C191.603 166.004 190.254 170.384 187.752 172.661C186.829 173.502 185.75 174.057 184.558 174.254C182.362 174.618 180.12 173.708 178.264 171.847C176.41 169.986 174.977 167.203 174.435 163.933C173.469 158.103 175.673 152.936 179.23 151.338C179.692 151.131 180.178 150.982 180.687 150.897C182.883 150.533 185.125 151.444 186.98 153.305C188.835 155.165 190.268 157.949 190.81 161.219Z" fill="#6CCC54" stroke="white"/>
<path d="M243.628 183.741C243.701 188.35 241.778 192.277 239.052 194.067C238.046 194.728 236.931 195.099 235.757 195.117C233.595 195.152 231.575 193.981 230.064 191.972C228.553 189.964 227.578 187.147 227.528 183.997C227.438 178.384 230.294 173.835 233.936 172.832C234.41 172.701 234.898 172.629 235.399 172.621C237.561 172.587 239.581 173.758 241.092 175.767C242.603 177.775 243.578 180.591 243.628 183.741Z" fill="#6CCC54" stroke="white"/>
<path d="M209 232C209.586 226.079 210.02 218.887 210.284 211.073M209 128C209 132.122 208.465 144.459 209.505 159.073M209.505 159.073C213.579 158.65 223 155.902 228.091 148.293M209.505 159.073C210.12 167.7 210.461 177.328 210.558 186.976M210.558 186.976C203.887 186.553 190.036 183.551 188 174.927M210.558 186.976C210.639 195.197 210.543 203.432 210.284 211.073M210.284 211.073C218.765 211.496 235.982 209.298 237 197.122" stroke="#3F2811" stroke-width="4"/>
<ellipse cx="208" cy="104.5" rx="20" ry="20.5" fill="#FFD45C"/>
<path d="M207.25 115.5C207.083 115.5 206.942 115.442 206.825 115.325C206.708 115.225 206.65 115.083 206.65 114.9V113.15C205.45 113.033 204.417 112.75 203.55 112.3C202.7 111.833 202.05 111.267 201.6 110.6C201.167 109.917 200.933 109.192 200.9 108.425C200.9 108.275 200.95 108.15 201.05 108.05C201.167 107.95 201.3 107.9 201.45 107.9H203.675C203.858 107.9 204 107.942 204.1 108.025C204.217 108.092 204.325 108.208 204.425 108.375C204.608 108.942 204.992 109.417 205.575 109.8C206.175 110.183 207 110.375 208.05 110.375C209.217 110.375 210.1 110.183 210.7 109.8C211.3 109.4 211.6 108.85 211.6 108.15C211.6 107.683 211.45 107.3 211.15 107C210.85 106.7 210.392 106.442 209.775 106.225C209.158 105.992 208.25 105.725 207.05 105.425C205.083 104.958 203.642 104.342 202.725 103.575C201.825 102.792 201.375 101.683 201.375 100.25C201.375 98.95 201.842 97.8583 202.775 96.975C203.725 96.075 205.017 95.525 206.65 95.325V93.6C206.65 93.4167 206.708 93.275 206.825 93.175C206.942 93.0583 207.083 93 207.25 93H208.775C208.942 93 209.083 93.0583 209.2 93.175C209.317 93.2917 209.375 93.4333 209.375 93.6V95.375C210.458 95.525 211.383 95.85 212.15 96.35C212.933 96.8333 213.525 97.4 213.925 98.05C214.342 98.7 214.567 99.3333 214.6 99.95C214.6 100.1 214.55 100.225 214.45 100.325C214.35 100.425 214.225 100.475 214.075 100.475H211.75C211.383 100.475 211.133 100.317 211 100C210.917 99.4667 210.592 99.025 210.025 98.675C209.458 98.3083 208.75 98.125 207.9 98.125C206.983 98.125 206.258 98.3 205.725 98.65C205.192 99 204.925 99.5083 204.925 100.175C204.925 100.642 205.058 101.025 205.325 101.325C205.592 101.625 206.008 101.892 206.575 102.125C207.158 102.358 207.992 102.617 209.075 102.9C210.542 103.233 211.708 103.608 212.575 104.025C213.458 104.442 214.108 104.967 214.525 105.6C214.942 106.233 215.15 107.042 215.15 108.025C215.15 109.458 214.633 110.633 213.6 111.55C212.567 112.45 211.158 112.992 209.375 113.175V114.9C209.375 115.067 209.317 115.208 209.2 115.325C209.083 115.442 208.942 115.5 208.775 115.5H207.25Z" fill="#FDB733"/>
<path d="M187 236C189.121 232.227 199.091 226.945 222 236" stroke="#522E0C" stroke-width="3"/>
<path d="M212 232C216.533 227.818 227.68 220.707 236 225.726" stroke="#522E0C" stroke-width="3"/>
<path d="M96.468 346C96.2413 346 96.0487 345.921 95.89 345.762C95.7313 345.603 95.652 345.411 95.652 345.184V323.05C95.652 322.801 95.72 322.597 95.856 322.438C96.0147 322.279 96.2187 322.2 96.468 322.2H99.46C99.7093 322.2 99.9133 322.279 100.072 322.438C100.231 322.597 100.31 322.801 100.31 323.05V331.006L107.994 322.812C108.289 322.404 108.731 322.2 109.32 322.2H112.686C112.867 322.2 113.026 322.268 113.162 322.404C113.321 322.54 113.4 322.71 113.4 322.914C113.4 323.073 113.355 323.209 113.264 323.322L103.914 333.59L113.91 344.844C114.023 344.98 114.08 345.127 114.08 345.286C114.08 345.49 114.001 345.66 113.842 345.796C113.706 345.932 113.547 346 113.366 346H109.864C109.297 346 108.855 345.796 108.538 345.388L100.31 336.378V345.184C100.31 345.433 100.231 345.637 100.072 345.796C99.9133 345.932 99.7093 346 99.46 346H96.468ZM124.57 346.34C121.918 346.34 119.867 345.66 118.416 344.3C116.966 342.917 116.184 341.036 116.07 338.656L116.036 337.16L116.07 335.664C116.184 333.307 116.977 331.437 118.45 330.054C119.924 328.671 121.964 327.98 124.57 327.98C127.177 327.98 129.217 328.671 130.69 330.054C132.164 331.437 132.957 333.307 133.07 335.664C133.093 335.936 133.104 336.435 133.104 337.16C133.104 337.885 133.093 338.384 133.07 338.656C132.957 341.036 132.175 342.917 130.724 344.3C129.274 345.66 127.222 346.34 124.57 346.34ZM124.57 342.974C125.772 342.974 126.701 342.6 127.358 341.852C128.016 341.081 128.378 339.959 128.446 338.486C128.469 338.259 128.48 337.817 128.48 337.16C128.48 336.503 128.469 336.061 128.446 335.834C128.378 334.361 128.016 333.25 127.358 332.502C126.701 331.731 125.772 331.346 124.57 331.346C123.369 331.346 122.44 331.731 121.782 332.502C121.125 333.25 120.762 334.361 120.694 335.834L120.66 337.16L120.694 338.486C120.762 339.959 121.125 341.081 121.782 341.852C122.44 342.6 123.369 342.974 124.57 342.974ZM138.741 352.46C138.515 352.46 138.322 352.381 138.163 352.222C138.005 352.086 137.925 351.893 137.925 351.644V329.136C137.925 328.887 138.005 328.694 138.163 328.558C138.322 328.399 138.515 328.32 138.741 328.32H141.427C141.677 328.32 141.869 328.399 142.005 328.558C142.164 328.694 142.243 328.887 142.243 329.136V330.496C143.513 328.819 145.326 327.98 147.683 327.98C149.973 327.98 151.729 328.705 152.953 330.156C154.177 331.584 154.835 333.522 154.925 335.97C154.948 336.242 154.959 336.639 154.959 337.16C154.959 337.704 154.948 338.112 154.925 338.384C154.835 340.764 154.177 342.691 152.953 344.164C151.729 345.615 149.973 346.34 147.683 346.34C145.394 346.34 143.649 345.535 142.447 343.926V351.644C142.447 351.893 142.368 352.086 142.209 352.222C142.073 352.381 141.881 352.46 141.631 352.46H138.741ZM146.425 342.702C148.873 342.702 150.177 341.195 150.335 338.18C150.358 337.953 150.369 337.613 150.369 337.16C150.369 336.707 150.358 336.367 150.335 336.14C150.177 333.125 148.873 331.618 146.425 331.618C145.111 331.618 144.136 332.037 143.501 332.876C142.867 333.715 142.515 334.746 142.447 335.97L142.413 337.262L142.447 338.588C142.493 339.721 142.844 340.696 143.501 341.512C144.181 342.305 145.156 342.702 146.425 342.702ZM167.412 346.34C164.896 346.34 162.89 345.615 161.394 344.164C159.921 342.691 159.139 340.628 159.048 337.976L159.014 337.126L159.048 336.276C159.162 333.692 159.955 331.663 161.428 330.19C162.924 328.717 164.919 327.98 167.412 327.98C170.087 327.98 172.15 328.796 173.6 330.428C175.074 332.06 175.81 334.236 175.81 336.956V337.67C175.81 337.897 175.731 338.089 175.572 338.248C175.414 338.407 175.21 338.486 174.96 338.486H163.672V338.758C163.718 340.005 164.058 341.059 164.692 341.92C165.35 342.759 166.245 343.178 167.378 343.178C168.716 343.178 169.792 342.657 170.608 341.614C170.812 341.365 170.971 341.206 171.084 341.138C171.22 341.07 171.413 341.036 171.662 341.036H174.586C174.79 341.036 174.96 341.104 175.096 341.24C175.255 341.353 175.334 341.501 175.334 341.682C175.334 342.226 175.006 342.872 174.348 343.62C173.714 344.345 172.796 344.98 171.594 345.524C170.393 346.068 168.999 346.34 167.412 346.34ZM171.186 335.63V335.528C171.186 334.191 170.846 333.114 170.166 332.298C169.509 331.482 168.591 331.074 167.412 331.074C166.234 331.074 165.316 331.482 164.658 332.298C164.001 333.114 163.672 334.191 163.672 335.528V335.63H171.186ZM188.055 346.34C185.539 346.34 183.533 345.615 182.037 344.164C180.564 342.691 179.782 340.628 179.691 337.976L179.657 337.126L179.691 336.276C179.805 333.692 180.598 331.663 182.071 330.19C183.567 328.717 185.562 327.98 188.055 327.98C190.73 327.98 192.793 328.796 194.243 330.428C195.717 332.06 196.453 334.236 196.453 336.956V337.67C196.453 337.897 196.374 338.089 196.215 338.248C196.057 338.407 195.853 338.486 195.603 338.486H184.315V338.758C184.361 340.005 184.701 341.059 185.335 341.92C185.993 342.759 186.888 343.178 188.021 343.178C189.359 343.178 190.435 342.657 191.251 341.614C191.455 341.365 191.614 341.206 191.727 341.138C191.863 341.07 192.056 341.036 192.305 341.036H195.229C195.433 341.036 195.603 341.104 195.739 341.24C195.898 341.353 195.977 341.501 195.977 341.682C195.977 342.226 195.649 342.872 194.991 343.62C194.357 344.345 193.439 344.98 192.237 345.524C191.036 346.068 189.642 346.34 188.055 346.34ZM191.829 335.63V335.528C191.829 334.191 191.489 333.114 190.809 332.298C190.152 331.482 189.234 331.074 188.055 331.074C186.877 331.074 185.959 331.482 185.301 332.298C184.644 333.114 184.315 334.191 184.315 335.528V335.63H191.829Z" fill="#252525"/>
<path d="M202.306 346C202.08 346 201.887 345.921 201.728 345.762C201.57 345.603 201.49 345.411 201.49 345.184V323.016C201.49 322.767 201.57 322.574 201.728 322.438C201.887 322.279 202.08 322.2 202.306 322.2H205.502C205.752 322.2 205.944 322.279 206.08 322.438C206.239 322.574 206.318 322.767 206.318 323.016V345.184C206.318 345.411 206.239 345.603 206.08 345.762C205.944 345.921 205.752 346 205.502 346H202.306ZM213.078 346C212.852 346 212.659 345.921 212.5 345.762C212.342 345.603 212.262 345.411 212.262 345.184V329.136C212.262 328.909 212.342 328.717 212.5 328.558C212.659 328.399 212.852 328.32 213.078 328.32H215.866C216.093 328.32 216.286 328.399 216.444 328.558C216.603 328.717 216.682 328.909 216.682 329.136V330.53C218.02 328.83 219.912 327.98 222.36 327.98C224.446 327.98 226.1 328.671 227.324 330.054C228.548 331.414 229.16 333.273 229.16 335.63V345.184C229.16 345.411 229.081 345.603 228.922 345.762C228.786 345.921 228.594 346 228.344 346H225.352C225.126 346 224.933 345.921 224.774 345.762C224.616 345.603 224.536 345.411 224.536 345.184V335.834C224.536 334.497 224.208 333.465 223.55 332.74C222.916 331.992 221.986 331.618 220.762 331.618C219.561 331.618 218.609 331.992 217.906 332.74C217.226 333.488 216.886 334.519 216.886 335.834V345.184C216.886 345.411 216.807 345.603 216.648 345.762C216.512 345.921 216.32 346 216.07 346H213.078ZM240.224 346C239.884 346 239.623 345.932 239.442 345.796C239.261 345.637 239.113 345.422 239 345.15L232.642 329.374L232.574 329.068C232.574 328.864 232.642 328.694 232.778 328.558C232.937 328.399 233.118 328.32 233.322 328.32H236.076C236.507 328.32 236.801 328.535 236.96 328.966L241.482 340.9L246.004 328.966C246.072 328.807 246.174 328.66 246.31 328.524C246.469 328.388 246.661 328.32 246.888 328.32H249.676C249.857 328.32 250.016 328.399 250.152 328.558C250.311 328.694 250.39 328.864 250.39 329.068C250.39 329.204 250.379 329.306 250.356 329.374L243.964 345.15C243.851 345.422 243.703 345.637 243.522 345.796C243.341 345.932 243.08 346 242.74 346H240.224ZM261.497 346.34C258.981 346.34 256.975 345.615 255.479 344.164C254.005 342.691 253.223 340.628 253.133 337.976L253.099 337.126L253.133 336.276C253.246 333.692 254.039 331.663 255.513 330.19C257.009 328.717 259.003 327.98 261.497 327.98C264.171 327.98 266.234 328.796 267.685 330.428C269.158 332.06 269.895 334.236 269.895 336.956V337.67C269.895 337.897 269.815 338.089 269.657 338.248C269.498 338.407 269.294 338.486 269.045 338.486H257.757V338.758C257.802 340.005 258.142 341.059 258.777 341.92C259.434 342.759 260.329 343.178 261.463 343.178C262.8 343.178 263.877 342.657 264.693 341.614C264.897 341.365 265.055 341.206 265.169 341.138C265.305 341.07 265.497 341.036 265.747 341.036H268.671C268.875 341.036 269.045 341.104 269.181 341.24C269.339 341.353 269.419 341.501 269.419 341.682C269.419 342.226 269.09 342.872 268.433 343.62C267.798 344.345 266.88 344.98 265.679 345.524C264.477 346.068 263.083 346.34 261.497 346.34ZM265.271 335.63V335.528C265.271 334.191 264.931 333.114 264.251 332.298C263.593 331.482 262.675 331.074 261.497 331.074C260.318 331.074 259.4 331.482 258.743 332.298C258.085 333.114 257.757 334.191 257.757 335.528V335.63H265.271ZM281.222 346.34C279.522 346.34 278.094 346.091 276.938 345.592C275.782 345.071 274.92 344.47 274.354 343.79C273.81 343.087 273.538 342.487 273.538 341.988C273.538 341.761 273.617 341.58 273.776 341.444C273.934 341.308 274.116 341.24 274.32 341.24H277.006C277.21 341.24 277.38 341.319 277.516 341.478C277.606 341.546 277.844 341.75 278.23 342.09C278.615 342.453 279.068 342.736 279.59 342.94C280.111 343.144 280.689 343.246 281.324 343.246C282.23 343.246 282.978 343.065 283.568 342.702C284.157 342.339 284.452 341.841 284.452 341.206C284.452 340.73 284.316 340.345 284.044 340.05C283.794 339.755 283.33 339.495 282.65 339.268C281.97 339.019 280.961 338.758 279.624 338.486C277.697 338.078 276.269 337.455 275.34 336.616C274.433 335.777 273.98 334.667 273.98 333.284C273.98 332.377 274.252 331.527 274.796 330.734C275.34 329.918 276.144 329.261 277.21 328.762C278.298 328.241 279.59 327.98 281.086 327.98C282.604 327.98 283.919 328.229 285.03 328.728C286.14 329.204 286.979 329.782 287.546 330.462C288.135 331.119 288.43 331.709 288.43 332.23C288.43 332.434 288.35 332.615 288.192 332.774C288.056 332.91 287.886 332.978 287.682 332.978H285.166C284.984 332.978 284.792 332.899 284.588 332.74C284.429 332.627 284.18 332.411 283.84 332.094C283.5 331.777 283.103 331.527 282.65 331.346C282.196 331.165 281.664 331.074 281.052 331.074C280.213 331.074 279.556 331.255 279.08 331.618C278.626 331.981 278.4 332.457 278.4 333.046C278.4 333.477 278.513 333.828 278.74 334.1C278.966 334.372 279.408 334.633 280.066 334.882C280.723 335.131 281.709 335.381 283.024 335.63C285.2 336.061 286.752 336.729 287.682 337.636C288.634 338.543 289.11 339.653 289.11 340.968C289.11 342.555 288.418 343.847 287.036 344.844C285.653 345.841 283.715 346.34 281.222 346.34ZM301.563 346C299.5 346 297.948 345.467 296.905 344.402C295.885 343.314 295.375 341.727 295.375 339.642V331.924H292.689C292.462 331.924 292.27 331.845 292.111 331.686C291.952 331.505 291.873 331.301 291.873 331.074V329.136C291.873 328.909 291.952 328.717 292.111 328.558C292.27 328.399 292.462 328.32 292.689 328.32H295.375V322.676C295.375 322.427 295.454 322.234 295.613 322.098C295.772 321.939 295.964 321.86 296.191 321.86H298.945C299.194 321.86 299.387 321.939 299.523 322.098C299.682 322.234 299.761 322.427 299.761 322.676V328.32H304.011C304.26 328.32 304.453 328.399 304.589 328.558C304.748 328.694 304.827 328.887 304.827 329.136V331.074C304.827 331.323 304.748 331.527 304.589 331.686C304.43 331.845 304.238 331.924 304.011 331.924H299.761V339.302C299.761 340.277 299.931 341.013 300.271 341.512C300.611 342.011 301.178 342.26 301.971 342.26H304.317C304.544 342.26 304.736 342.339 304.895 342.498C305.054 342.657 305.133 342.849 305.133 343.076V345.184C305.133 345.411 305.054 345.603 304.895 345.762C304.759 345.921 304.566 346 304.317 346H301.563Z" fill="#7D9E46"/>
</svg>
