<svg width="80" height="80" viewBox="0 0 80 80" fill="none" xmlns="http://www.w3.org/2000/svg">
<path d="M39.9667 6.66675C21.5667 6.66675 6.66675 21.6001 6.66675 40.0001C6.66675 58.4001 21.5667 73.3334 39.9667 73.3334C58.4001 73.3334 73.3334 58.4001 73.3334 40.0001C73.3334 21.6001 58.4001 6.66675 39.9667 6.66675ZM63.0667 26.6667H53.2334C52.1668 22.5001 50.6334 18.5001 48.6334 14.8001C54.7668 16.9001 59.8668 21.1667 63.0667 26.6667ZM40.0001 13.4667C42.7668 17.4667 44.9334 21.9001 46.3667 26.6667H33.6334C35.0667 21.9001 37.2334 17.4667 40.0001 13.4667ZM14.2001 46.6667C13.6667 44.5334 13.3334 42.3001 13.3334 40.0001C13.3334 37.7001 13.6667 35.4667 14.2001 33.3334H25.4667C25.2001 35.5334 25.0001 37.7334 25.0001 40.0001C25.0001 42.2668 25.2001 44.4668 25.4667 46.6667H14.2001ZM16.9334 53.3334H26.7667C27.8334 57.5001 29.3667 61.5001 31.3667 65.2001C25.2334 63.1001 20.1334 58.8667 16.9334 53.3334ZM26.7667 26.6667H16.9334C20.1334 21.1334 25.2334 16.9001 31.3667 14.8001C29.3667 18.5001 27.8334 22.5001 26.7667 26.6667ZM40.0001 66.5334C37.2334 62.5334 35.0667 58.1001 33.6334 53.3334H46.3667C44.9334 58.1001 42.7668 62.5334 40.0001 66.5334ZM47.8001 46.6667H32.2001C31.9001 44.4668 31.6667 42.2668 31.6667 40.0001C31.6667 37.7334 31.9001 35.5001 32.2001 33.3334H47.8001C48.1001 35.5001 48.3334 37.7334 48.3334 40.0001C48.3334 42.2668 48.1001 44.4668 47.8001 46.6667ZM48.6334 65.2001C50.6334 61.5001 52.1668 57.5001 53.2334 53.3334H63.0667C59.8668 58.8334 54.7668 63.1001 48.6334 65.2001ZM54.5334 46.6667C54.8001 44.4668 55.0001 42.2668 55.0001 40.0001C55.0001 37.7334 54.8001 35.5334 54.5334 33.3334H65.8001C66.3334 35.4667 66.6668 37.7001 66.6668 40.0001C66.6668 42.3001 66.3334 44.5334 65.8001 46.6667H54.5334Z" fill="white"/>
</svg>
