<svg width="58" height="58" viewBox="0 0 58 58" fill="none" xmlns="http://www.w3.org/2000/svg">
<circle cx="29" cy="29" r="27.5" stroke="#3F2811" stroke-width="3"/>
<path d="M41 11C43.4 10.2 40 8.50005 46 10C52 11.5 57.5 28.5 54.5 30C52.1 31.2 44.6667 32 40 31.5L45.5 28L40 24L36 22V18C36 18 31.6667 17.1667 30.5 18V12.5C33.5 12.8334 38.6 11.8 41 11Z" fill="#7D9E46"/>
<path d="M11 10L8.14319 13C2.00001 20.5 2.09992 34 4.49993 36C6.89993 38 13.4765 33.6667 16.6432 31V27.5L19.1432 24L16.1432 20.5L19.1432 17.5H23.1432L24.1432 15L26.1432 10L24.6432 9L12.6432 13L11 10Z" fill="#7D9E46"/>
<path d="M21.0001 31C19.4001 30.6 18.0001 33.8333 17.5001 35.5L21.0001 33.5C21.6667 32.8333 22.6001 31.4 21.0001 31Z" fill="#7D9E46"/>
<path d="M16.0001 37C15.6001 35.8 14.1667 36.5 13.5001 37C13.1667 37.5 12.9001 38.7 14.5001 39.5C16.5001 40.5 17.5001 40 17.0001 39.5C16.5001 39 16.5001 38.5 16.0001 37Z" fill="#7D9E46"/>
<path d="M27.5 36C23.5 35 25 37.5 23 39.5C23 42.5 23.5 47.9 25.5 45.5C28 42.5 32 47 34 47C36 47 37 42.5 38.5 40.5C39.7 38.9 36 36.8333 34 36C33.8333 36.3333 32.9 37.3 30.5 38.5C27.5 40 31.5 37 27.5 36Z" fill="#7D9E46"/>
<path d="M50.0667 36.1525L53.2152 38.9962C51.3166 45.8314 45.9729 48.9055 43.8262 50.209C43.5213 50.7824 43.2352 51.103 43 51C42.7417 50.8869 43.1021 50.6486 43.8262 50.209C44.5834 48.7846 45.4567 45.8003 45.9535 43.8714C46.0776 43.0306 46.3055 40.9497 46.2243 39.3518C46.143 37.7538 48.752 36.5531 50.0667 36.1525Z" fill="#7D9E46"/>
</svg>
