<svg width="84" height="85" viewBox="0 0 84 85" fill="none" xmlns="http://www.w3.org/2000/svg">
<mask id="path-1-inside-1" fill="white">
<path fill-rule="evenodd" clip-rule="evenodd" d="M82.7632 25.6671C73.3401 13.8883 56.0644 4.92245 39.9609 0C25.8756 4.74665 7.90535 13.673 0 25.6671H16.6357C16.3747 27.1117 16.2384 28.5997 16.2384 30.1196C16.2384 43.8611 27.3782 55.0009 41.1198 55.0009C54.8613 55.0009 66.0011 43.8611 66.0011 30.1196C66.0011 28.5997 65.8648 27.1117 65.6038 25.6671H82.7632ZM19.6918 25.6671H62.5478C62.8449 27.1047 63.0011 28.5939 63.0011 30.1196C63.0011 42.2043 53.2045 52.0009 41.1198 52.0009C29.035 52.0009 19.2384 42.2043 19.2384 30.1196C19.2384 28.5939 19.3946 27.1047 19.6918 25.6671Z"/>
</mask>
<path d="M39.9609 0L40.8379 -2.86896L39.9162 -3.1507L39.0028 -2.84291L39.9609 0ZM82.7632 25.6671V28.6671H89.0051L85.1058 23.793L82.7632 25.6671ZM0 25.6671L-2.50486 24.0161L-5.57033 28.6671H0V25.6671ZM16.6357 25.6671L19.5879 26.2004L20.2262 22.6671H16.6357V25.6671ZM65.6038 25.6671V22.6671H62.0133L62.6516 26.2004L65.6038 25.6671ZM62.5478 25.6671L65.4856 25.0597L64.991 22.6671H62.5478V25.6671ZM19.6918 25.6671V22.6671H17.2485L16.7539 25.0598L19.6918 25.6671ZM39.0839 2.86896C54.9385 7.71531 71.5438 16.4453 80.4206 27.5412L85.1058 23.793C75.1364 11.3314 57.1903 2.12959 40.8379 -2.86896L39.0839 2.86896ZM2.50486 27.318C6.10454 21.8565 12.1424 16.9065 19.201 12.6915C26.2208 8.49963 34.0314 5.16398 40.9189 2.84291L39.0028 -2.84291C31.8051 -0.417334 23.5879 3.0835 16.1249 7.54002C8.70073 11.9733 1.80081 17.4835 -2.50486 24.0161L2.50486 27.318ZM16.6357 22.6671H0V28.6671H16.6357V22.6671ZM13.6835 25.1337C13.3908 26.7535 13.2384 28.42 13.2384 30.1196H19.2384C19.2384 28.7794 19.3586 27.4699 19.5879 26.2004L13.6835 25.1337ZM13.2384 30.1196C13.2384 45.518 25.7213 58.0009 41.1198 58.0009V52.0009C29.035 52.0009 19.2384 42.2043 19.2384 30.1196H13.2384ZM41.1198 58.0009C56.5182 58.0009 69.0011 45.518 69.0011 30.1196H63.0011C63.0011 42.2043 53.2045 52.0009 41.1198 52.0009V58.0009ZM69.0011 30.1196C69.0011 28.42 68.8487 26.7535 68.556 25.1337L62.6516 26.2004C62.881 27.4699 63.0011 28.7794 63.0011 30.1196H69.0011ZM82.7632 22.6671H65.6038V28.6671H82.7632V22.6671ZM62.5478 22.6671H19.6918V28.6671H62.5478V22.6671ZM66.0011 30.1196C66.0011 28.3887 65.8239 26.696 65.4856 25.0597L59.6099 26.2744C59.866 27.5134 60.0011 28.7991 60.0011 30.1196H66.0011ZM41.1198 55.0009C54.8613 55.0009 66.0011 43.8611 66.0011 30.1196H60.0011C60.0011 40.5474 51.5476 49.0009 41.1198 49.0009V55.0009ZM16.2384 30.1196C16.2384 43.8611 27.3782 55.0009 41.1198 55.0009V49.0009C30.6919 49.0009 22.2384 40.5474 22.2384 30.1196H16.2384ZM16.7539 25.0598C16.4156 26.696 16.2384 28.3887 16.2384 30.1196H22.2384C22.2384 28.7991 22.3735 27.5134 22.6296 26.2744L16.7539 25.0598Z" fill="#3F2811" mask="url(#path-1-inside-1)"/>
<path d="M43.5607 54.8604C42.9749 54.2746 42.0251 54.2746 41.4393 54.8604L31.8934 64.4063C31.3076 64.9921 31.3076 65.9419 31.8934 66.5277C32.4792 67.1134 33.4289 67.1134 34.0147 66.5277L42.5 58.0424L50.9853 66.5277C51.5711 67.1134 52.5208 67.1134 53.1066 66.5277C53.6924 65.9419 53.6924 64.9921 53.1066 64.4063L43.5607 54.8604ZM44 85L44 55.9211L41 55.9211L41 85L44 85Z" fill="#3F2811"/>
<path d="M79.7756 55.4046C79.7756 56.2713 79.5589 57.0946 79.1256 57.8746C78.6923 58.6373 78.0509 59.2786 77.2016 59.7986C76.3696 60.3013 75.3816 60.6046 74.2376 60.7086V62.8146H72.7556V60.7086C71.0916 60.5873 69.7483 60.0933 68.7256 59.2266C67.7029 58.3426 67.1916 57.1813 67.1916 55.7426H70.3636C70.4156 56.4359 70.6409 57.0079 71.0396 57.4586C71.4383 57.8919 72.0103 58.1693 72.7556 58.2906V52.5706C71.5596 52.2759 70.5889 51.9813 69.8436 51.6866C69.1156 51.3746 68.4916 50.8893 67.9716 50.2306C67.4516 49.5546 67.1916 48.6446 67.1916 47.5006C67.1916 46.0273 67.7029 44.8226 68.7256 43.8866C69.7483 42.9506 71.0916 42.4133 72.7556 42.2746V40.1686H74.2376V42.2746C75.7976 42.3959 77.0456 42.8726 77.9816 43.7046C78.9349 44.5193 79.4723 45.6546 79.5936 47.1106H76.4216C76.3696 46.5559 76.1443 46.0619 75.7456 45.6286C75.3643 45.1953 74.8616 44.9093 74.2376 44.7706V50.3866C75.4336 50.6639 76.3956 50.9499 77.1236 51.2446C77.8516 51.5393 78.4756 52.0246 78.9956 52.7006C79.5156 53.3593 79.7756 54.2606 79.7756 55.4046ZM70.2076 47.3446C70.2076 48.0726 70.4243 48.6359 70.8576 49.0346C71.3083 49.4333 71.9409 49.7539 72.7556 49.9966V44.6926C71.9756 44.7966 71.3516 45.0739 70.8836 45.5246C70.4329 45.9579 70.2076 46.5646 70.2076 47.3446ZM74.2376 58.2906C75.0349 58.1693 75.6589 57.8659 76.1096 57.3806C76.5603 56.8779 76.7856 56.2713 76.7856 55.5606C76.7856 54.8673 76.5603 54.3213 76.1096 53.9226C75.6763 53.5239 75.0523 53.2033 74.2376 52.9606V58.2906Z" fill="#7D9E46"/>
<path d="M10.88 41.6452C10.88 42.3119 10.7133 42.9452 10.38 43.5452C10.0467 44.1319 9.55333 44.6252 8.9 45.0252C8.26 45.4119 7.5 45.6452 6.62 45.7252V47.3452H5.48V45.7252C4.2 45.6319 3.16667 45.2519 2.38 44.5852C1.59333 43.9052 1.2 43.0119 1.2 41.9052H3.64C3.68 42.4386 3.85333 42.8786 4.16 43.2252C4.46667 43.5586 4.90667 43.7719 5.48 43.8652V39.4652C4.56 39.2386 3.81333 39.0119 3.24 38.7852C2.68 38.5452 2.2 38.1719 1.8 37.6652C1.4 37.1452 1.2 36.4452 1.2 35.5652C1.2 34.4319 1.59333 33.5052 2.38 32.7852C3.16667 32.0652 4.2 31.6519 5.48 31.5452V29.9252H6.62V31.5452C7.82 31.6386 8.78 32.0052 9.5 32.6452C10.2333 33.2719 10.6467 34.1452 10.74 35.2652H8.3C8.26 34.8386 8.08667 34.4586 7.78 34.1252C7.48667 33.7919 7.1 33.5719 6.62 33.4652V37.7852C7.54 37.9986 8.28 38.2186 8.84 38.4452C9.4 38.6719 9.88 39.0452 10.28 39.5652C10.68 40.0719 10.88 40.7652 10.88 41.6452ZM3.52 35.4452C3.52 36.0052 3.68667 36.4386 4.02 36.7452C4.36667 37.0519 4.85333 37.2986 5.48 37.4852V33.4052C4.88 33.4852 4.4 33.6986 4.04 34.0452C3.69333 34.3786 3.52 34.8452 3.52 35.4452ZM6.62 43.8652C7.23333 43.7719 7.71333 43.5386 8.06 43.1652C8.40667 42.7786 8.58 42.3119 8.58 41.7652C8.58 41.2319 8.40667 40.8119 8.06 40.5052C7.72667 40.1986 7.24667 39.9519 6.62 39.7652V43.8652Z" fill="#7D9E46"/>
<path d="M30 41C32 44 43 50 52 41" stroke="#3F2811" stroke-width="3" stroke-linecap="round" stroke-linejoin="round"/>
</svg>
