<svg width="72" height="56" viewBox="0 0 72 56" fill="none" xmlns="http://www.w3.org/2000/svg">
<mask id="path-1-inside-1" fill="white">
<path fill-rule="evenodd" clip-rule="evenodd" d="M72 37.8544C68.015 32.8733 60.7093 29.0817 53.8992 27C47.9426 29.0073 40.3431 32.7822 37 37.8544H44.0351C43.9247 38.4654 43.8671 39.0946 43.8671 39.7373C43.8671 45.5486 48.578 50.2595 54.3892 50.2595C60.2005 50.2595 64.9114 45.5486 64.9114 39.7373C64.9114 39.0946 64.8538 38.4654 64.7434 37.8544H72ZM47.1047 37.8544H61.6738C61.8289 38.4562 61.9114 39.0871 61.9114 39.7373C61.9114 43.8917 58.5436 47.2595 54.3892 47.2595C50.2349 47.2595 46.8671 43.8917 46.8671 39.7373C46.8671 39.0871 46.9496 38.4562 47.1047 37.8544Z"/>
</mask>
<path d="M53.8992 27L54.7762 24.131L53.8545 23.8493L52.9412 24.1571L53.8992 27ZM72 37.8544V40.8544H78.2419L74.3426 35.9803L72 37.8544ZM37 37.8544L34.4951 36.2035L31.4297 40.8544H37V37.8544ZM44.0351 37.8544L46.9873 38.3878L47.6256 34.8544H44.0351V37.8544ZM64.7434 37.8544V34.8544H61.1529L61.7912 38.3878L64.7434 37.8544ZM61.6738 37.8544L64.5789 37.1057L63.9986 34.8544H61.6738V37.8544ZM47.1047 37.8544V34.8544H44.7798L44.1996 37.1057L47.1047 37.8544ZM53.0222 29.869C59.5833 31.8745 66.2187 35.4303 69.6574 39.7285L74.3426 35.9803C69.8113 30.3163 61.8352 26.2888 54.7762 24.131L53.0222 29.869ZM39.5049 39.5054C40.8234 37.5049 43.1281 35.5731 46.0076 33.8536C48.8483 32.1573 52.034 30.7943 54.8572 29.8429L52.9412 24.1571C49.8078 25.213 46.2154 26.7412 42.9315 28.7022C39.6864 30.64 36.5197 33.1318 34.4951 36.2035L39.5049 39.5054ZM44.0351 34.8544H37V40.8544H44.0351V34.8544ZM41.0829 37.3211C40.9409 38.1072 40.8671 38.9149 40.8671 39.7373H46.8671C46.8671 39.2743 46.9086 38.8235 46.9873 38.3878L41.0829 37.3211ZM40.8671 39.7373C40.8671 47.2054 46.9212 53.2595 54.3892 53.2595V47.2595C50.2349 47.2595 46.8671 43.8917 46.8671 39.7373H40.8671ZM54.3892 53.2595C61.8573 53.2595 67.9114 47.2054 67.9114 39.7373H61.9114C61.9114 43.8917 58.5436 47.2595 54.3892 47.2595V53.2595ZM67.9114 39.7373C67.9114 38.9149 67.8376 38.1072 67.6956 37.3211L61.7912 38.3878C61.8699 38.8235 61.9114 39.2743 61.9114 39.7373H67.9114ZM72 34.8544H64.7434V40.8544H72V34.8544ZM61.6738 34.8544H47.1047V40.8544H61.6738V34.8544ZM64.9114 39.7373C64.9114 38.8324 64.7965 37.95 64.5789 37.1057L58.7687 38.6032C58.8613 38.9624 58.9114 39.3418 58.9114 39.7373H64.9114ZM54.3892 50.2595C60.2005 50.2595 64.9114 45.5486 64.9114 39.7373H58.9114C58.9114 42.2349 56.8868 44.2595 54.3892 44.2595V50.2595ZM43.8671 39.7373C43.8671 45.5486 48.578 50.2595 54.3892 50.2595V44.2595C51.8917 44.2595 49.8671 42.2349 49.8671 39.7373H43.8671ZM44.1996 37.1057C43.982 37.95 43.8671 38.8324 43.8671 39.7373H49.8671C49.8671 39.3418 49.9172 38.9624 50.0097 38.6032L44.1996 37.1057Z" fill="#3F2811" mask="url(#path-1-inside-1)"/>
<circle cx="19.1699" cy="9.2076" r="6.75472" stroke="#3F2811" stroke-width="3"/>
<path d="M25.3146 17.6343C19.5619 20.1911 14.9063 18.6751 11.1593 17.6343C5.66372 17.6343 2.06939 23.4631 2 26.3775L37 26.3187C35.931 17.6343 28.6452 16.154 25.3146 17.6343Z" stroke="#3F2811" stroke-width="3"/>
<path d="M39.4814 8.4255C38.7041 8.71189 38.3061 9.57422 38.5925 10.3516C38.8789 11.1289 39.7412 11.5269 40.5186 11.2405L39.4814 8.4255ZM55.5 19.833C55.5 20.6614 56.1716 21.333 57 21.333C57.8284 21.333 58.5 20.6614 58.5 19.833H55.5ZM40.5186 11.2405C43.3355 10.2027 47.1795 10.2029 50.2643 11.578C53.2474 12.9078 55.5 15.4938 55.5 19.833H58.5C58.5 14.1721 55.4193 10.5915 51.4857 8.83795C47.6539 7.12978 42.9979 7.12997 39.4814 8.4255L40.5186 11.2405Z" fill="#7D9E46"/>
<path d="M15.6259 36.3987C15.9579 35.6397 16.8424 35.2937 17.6014 35.6257C18.3603 35.9578 18.7064 36.8422 18.3743 37.6012L15.6259 36.3987ZM31.8743 47.637C32.6272 47.2914 33.5177 47.6215 33.8633 48.3744C34.2089 49.1273 33.8787 50.0178 33.1258 50.3634L31.8743 47.637ZM18.3743 37.6012C16.9585 40.8372 18.1883 44.1879 20.962 46.3897C23.7337 48.5899 27.886 49.4678 31.8743 47.637L33.1258 50.3634C28.0258 52.7045 22.6781 51.5823 19.0968 48.7394C15.5175 45.8981 13.5415 41.1628 15.6259 36.3987L18.3743 37.6012Z" fill="#7D9E46"/>
</svg>
