<svg width="58" height="58" viewBox="0 0 58 58" fill="none" xmlns="http://www.w3.org/2000/svg">
<circle cx="29" cy="29" r="27.5" stroke="#3F2811" stroke-width="3"/>
<path d="M27.73 46.7C27.4833 46.7 27.2737 46.6137 27.101 46.441C26.9283 46.293 26.842 46.0833 26.842 45.812V43.222C25.066 43.0493 23.5367 42.63 22.254 41.964C20.996 41.2733 20.034 40.4347 19.368 39.448C18.7267 38.4367 18.3813 37.3637 18.332 36.229C18.332 36.007 18.406 35.822 18.554 35.674C18.7267 35.526 18.924 35.452 19.146 35.452H22.439C22.7103 35.452 22.92 35.5137 23.068 35.637C23.2407 35.7357 23.401 35.9083 23.549 36.155C23.8203 36.9937 24.3877 37.6967 25.251 38.264C26.139 38.8313 27.36 39.115 28.914 39.115C30.6407 39.115 31.948 38.8313 32.836 38.264C33.724 37.672 34.168 36.858 34.168 35.822C34.168 35.1313 33.946 34.564 33.502 34.12C33.058 33.676 32.3797 33.2937 31.467 32.973C30.5543 32.6277 29.21 32.233 27.434 31.789C24.5233 31.0983 22.3897 30.1857 21.033 29.051C19.701 27.8917 19.035 26.2513 19.035 24.13C19.035 22.206 19.7257 20.5903 21.107 19.283C22.513 17.951 24.4247 17.137 26.842 16.841V14.288C26.842 14.0167 26.9283 13.807 27.101 13.659C27.2737 13.4863 27.4833 13.4 27.73 13.4H29.987C30.2337 13.4 30.4433 13.4863 30.616 13.659C30.7887 13.8317 30.875 14.0413 30.875 14.288V16.915C32.4783 17.137 33.8473 17.618 34.982 18.358C36.1413 19.0733 37.017 19.912 37.609 20.874C38.2257 21.836 38.5587 22.7733 38.608 23.686C38.608 23.908 38.534 24.093 38.386 24.241C38.238 24.389 38.053 24.463 37.831 24.463H34.39C33.8473 24.463 33.4773 24.2287 33.28 23.76C33.1567 22.9707 32.6757 22.317 31.837 21.799C30.9983 21.2563 29.95 20.985 28.692 20.985C27.3353 20.985 26.2623 21.244 25.473 21.762C24.6837 22.28 24.289 23.0323 24.289 24.019C24.289 24.7097 24.4863 25.277 24.881 25.721C25.2757 26.165 25.8923 26.5597 26.731 26.905C27.5943 27.2503 28.8277 27.6327 30.431 28.052C32.6017 28.5453 34.3283 29.1003 35.611 29.717C36.9183 30.3337 37.8803 31.1107 38.497 32.048C39.1137 32.9853 39.422 34.1817 39.422 35.637C39.422 37.7583 38.6573 39.4973 37.128 40.854C35.5987 42.186 33.5143 42.9877 30.875 43.259V45.812C30.875 46.0587 30.7887 46.2683 30.616 46.441C30.4433 46.6137 30.2337 46.7 29.987 46.7H27.73Z" fill="#7D9E46"/>
</svg>
