<svg width="80" height="80" viewBox="0 0 80 80" fill="none" xmlns="http://www.w3.org/2000/svg">
<path d="M68.3333 20.0001C59.6333 22.3334 49.4333 23.3334 40 23.3334C30.5667 23.3334 20.3667 22.3334 11.6667 20.0001L10 26.6667C16.2 28.3334 23.3333 29.4334 30 30.0001V73.3334H36.6667V53.3334H43.3333V73.3334H50V30.0001C56.6667 29.4334 63.8 28.3334 70 26.6667L68.3333 20.0001ZM40 20.0001C43.6667 20.0001 46.6667 17.0001 46.6667 13.3334C46.6667 9.66675 43.6667 6.66675 40 6.66675C36.3333 6.66675 33.3333 9.66675 33.3333 13.3334C33.3333 17.0001 36.3333 20.0001 40 20.0001Z" fill="white"/>
</svg>
